HIERARCHY
ROOT Hips
{
    OFFSET 0.000000 0.000000 0.000000
    CHANNELS 6 Xposition Yposition Zposition Zrotation Xrotation Yrotation
    JOINT Spine
    {
        OFFSET -0.000000 14.517291 0.000000
        CHANNELS 3 Zrotation Xrotation Yrotation
        JOINT Spine1
        {
            OFFSET -0.000000 37.558300 0.000000
            CHANNELS 3 Zrotation Xrotation Yrotation
            JOINT Neck
            {
                OFFSET -0.000000 37.404057 3.400369
                CHANNELS 3 Zrotation Xrotation Yrotation
                JOINT Head
                {
                    OFFSET -0.000000 24.785618 -3.540803
                    CHANNELS 3 Zrotation Xrotation Yrotation
                    End Site
                    {
                        OFFSET -0.000000 35.408028 0.000000
                    }
                }
            }
            JOINT LeftShoulder
            {
                OFFSET 6.992933 33.973492 -0.192664
                CHANNELS 3 Zrotation Xrotation Yrotation
                JOINT LeftArm
                {
                    OFFSET 21.527611 0.000000 0.000000
                    CHANNELS 3 Zrotation Xrotation Yrotation
                    JOINT LeftForeArm
                    {
                        OFFSET 56.353916 0.000000 0.000000
                        CHANNELS 3 Zrotation Xrotation Yrotation
                        JOINT LeftHand
                        {
                            OFFSET 47.774071 0.000000 0.000000
                            CHANNELS 3 Zrotation Xrotation Yrotation
                            End Site
                            {
                                OFFSET 26.556021 0.000000 0.000000
                            }
                        }
                    }
                }
            }
            JOINT RightShoulder
            {
                OFFSET -7.065357 33.973492 -0.192664
                CHANNELS 3 Zrotation Xrotation Yrotation
                JOINT RightArm
                {
                    OFFSET -21.527611 0.000000 0.000000
                    CHANNELS 3 Zrotation Xrotation Yrotation
                    JOINT RightForeArm
                    {
                        OFFSET -56.353916 0.000000 0.000000
                        CHANNELS 3 Zrotation Xrotation Yrotation
                        JOINT RightHand
                        {
                            OFFSET -47.774071 0.000000 0.000000
                            CHANNELS 3 Zrotation Xrotation Yrotation
                            End Site
                            {
                                OFFSET -26.556021 0.000000 0.000000
                            }
                        }
                    }
                }
            }
        }
    }
    JOINT LeftUpLeg
    {
        OFFSET 17.704014 0.000000 0.000000
        CHANNELS 3 Zrotation Xrotation Yrotation
        JOINT LeftLeg
        {
            OFFSET -0.000000 -81.181816 0.000000
            CHANNELS 3 Zrotation Xrotation Yrotation
            JOINT LeftFoot
            {
                OFFSET -0.000000 -62.821102 0.000000
                CHANNELS 3 Zrotation Xrotation Yrotation
                JOINT LeftToeBase
                {
                    OFFSET -0.000000 -11.507608 26.556021
                    CHANNELS 3 Zrotation Xrotation Yrotation
                    End Site
                    {
                        OFFSET -0.000000 0.000000 7.081605
                    }
                }
            }
        }
    }
    JOINT RightUpLeg
    {
        OFFSET -17.704014 0.000000 0.000000
        CHANNELS 3 Zrotation Xrotation Yrotation
        JOINT RightLeg
        {
            OFFSET -0.000000 -81.181816 0.000000
            CHANNELS 3 Zrotation Xrotation Yrotation
            JOINT RightFoot
            {
                OFFSET -0.000000 -62.821102 0.000000
                CHANNELS 3 Zrotation Xrotation Yrotation
                JOINT RightToeBase
                {
                    OFFSET -0.000000 -11.507608 26.556021
                    CHANNELS 3 Zrotation Xrotation Yrotation
                    End Site
                    {
                        OFFSET -0.000000 0.000000 7.081605
                    }
                }
            }
        }
    }
}
MOTION
Frames:    6
Frame Time:    0.008333
-11.417665    152.150894    -97.237946    3.382386    -4.991672    44.166019    -4.875329    1.297595    -7.499011    0.736251    3.700758    -2.541151    -2.625501    -3.203897    -14.240048    13.587064    7.038659    -13.294385    12.354538    -5.528042    -27.264034    -32.260715    -14.934082    -94.148132    64.581352    -69.551559    -49.155880    -32.988190    -43.479053    -49.297646    1.972837    11.396272    -3.173801    30.075731    17.907452    47.384769    -11.068969    0.550408    38.051426    -27.737843    -2.862113    28.686281    16.507235    -0.185387    -3.369138    -18.520397    39.182259    -19.886412    7.086911    -30.938957    50.390038    0.000000    0.000000    0.000000    -26.003187    -16.953035    -24.315239    11.045156    32.588051    -19.197563    7.616340    6.569622    -7.097611    0.000000    0.000000    0.000000    
-11.419297    152.143692    -97.231987    3.374289    -5.002754    44.183006    -4.885391    1.291194    -7.494830    0.744913    3.711188    -2.540073    -2.642220    -3.204363    -14.269002    13.653893    7.070276    -13.320292    12.352158    -5.460026    -27.257795    -32.284538    -14.895732    -94.142685    64.524284    -69.505699    -49.167042    -32.879875    -43.471432    -49.201870    1.975914    11.410361    -3.181557    30.065006    17.897400    47.358749    -11.073879    0.546394    38.014442    -27.702219    -2.858102    28.683870    16.528267    -0.197278    -3.366364    -18.524313    39.205917    -19.886395    7.096324    -30.950283    50.382313    0.000000    0.000000    0.000000    -25.999338    -16.950687    -24.316780    11.051642    32.611713    -19.189690    7.621513    6.564089    -7.102059    0.000000    0.000000    0.000000    
-11.427161    152.136581    -97.224106    3.359675    -5.012166    44.203415    -4.889181    1.285608    -7.491742    0.738048    3.713183    -2.538782    -2.652956    -3.209306    -14.294041    13.727180    7.115998    -13.344308    12.358412    -5.375795    -27.257236    -32.311092    -14.861756    -94.155083    64.497650    -69.447563    -49.148067    -32.806847    -43.421650    -49.130634    1.992363    11.406239    -3.180896    30.069912    17.893982    47.307793    -11.067084    0.555001    37.976795    -27.691584    -2.859650    28.708796    16.558159    -0.218638    -3.361587    -18.528788    39.236782    -19.917326    7.108879    -30.959778    50.392452    0.000000    0.000000    0.000000    -25.986378    -16.951675    -24.331667    11.046181    32.632401    -19.166153    7.641295    6.552996    -7.127409    0.000000    0.000000    0.000000    
-11.434137    152.135117    -97.217270    3.348134    -5.021937    44.221424    -4.896863    1.276995    -7.489031    0.735962    3.730698    -2.537825    -2.643632    -3.222408    -14.307160    13.754448    7.137577    -13.359904    12.357902    -5.298056    -27.241692    -32.288338    -14.821666    -94.158905    64.696815    -69.377792    -48.884750    -32.798874    -43.323280    -49.190475    2.005722    11.414477    -3.191707    30.062006    17.894091    47.284389    -11.076364    0.553623    37.945759    -27.672131    -2.854276    28.702959    16.582035    -0.234535    -3.351373    -18.524220    39.256073    -19.931389    7.116179    -30.951809    50.390686    0.000000    0.000000    0.000000    -25.973913    -16.947289    -24.334137    11.050355    32.640232    -19.151711    7.652712    6.547894    -7.148295    0.000000    0.000000    0.000000    
-11.444625    152.130249    -97.210587    3.333389    -5.031002    44.249660    -4.911695    1.272819    -7.491735    0.749487    3.740616    -2.539247    -2.645718    -3.232503    -14.326532    13.788772    7.162324    -13.379960    12.344687    -5.217522    -27.242722    -32.290775    -14.793633    -94.154503    64.696304    -69.328239    -48.828671    -32.724888    -43.288754    -49.167229    2.019384    11.417449    -3.200732    30.049515    17.907124    47.259266    -11.091162    0.544825    37.895985    -27.649717    -2.864611    28.730978    16.608652    -0.257480    -3.361370    -18.532969    39.272884    -19.904140    7.120648    -30.942833    50.356190    0.000000    0.000000    0.000000    -25.963129    -16.942350    -24.371965    11.042153    32.659603    -19.114962    7.654958    6.532864    -7.167351    0.000000    0.000000    0.000000    
-11.454395    152.127762    -97.200920    3.322823    -5.048574    44.272018    -4.919581    1.272047    -7.487527    0.756280    3.759592    -2.538227    -2.647017    -3.249530    -14.341121    13.809791    7.187817    -13.396105    12.324364    -5.150992    -27.256433    -32.286095    -14.769584    -94.160698    64.677589    -69.293671    -48.788025    -32.639034    -43.304173    -49.087009    2.030561    11.426840    -3.211468    30.035004    17.919590    47.240520    -11.120093    0.545761    37.850849    -27.627062    -2.861817    28.766727    16.639864    -0.270548    -3.352870    -18.524117    39.302628    -19.931290    7.109853    -30.956276    50.342548    0.000000    0.000000    0.000000    -25.943552    -16.928001    -24.392151    11.037307    32.663071    -19.126703    7.659997    6.528650    -7.153075    0.000000    0.000000    0.000000    
